<?xml version="1.0" encoding="utf-8" standalone="no"?>
<!DOCTYPE svg PUBLIC "-//W3C//DTD SVG 1.1//EN"
  "http://www.w3.org/Graphics/SVG/1.1/DTD/svg11.dtd">
<svg xmlns:xlink="http://www.w3.org/1999/xlink" width="637.02pt" height="654.707437pt" viewBox="0 0 637.02 654.707437" xmlns="http://www.w3.org/2000/svg" version="1.1">
 <metadata>
  <rdf:RDF xmlns:dc="http://purl.org/dc/elements/1.1/" xmlns:cc="http://creativecommons.org/ns#" xmlns:rdf="http://www.w3.org/1999/02/22-rdf-syntax-ns#">
   <cc:Work>
    <dc:type rdf:resource="http://purl.org/dc/dcmitype/StillImage"/>
    <dc:date>2025-01-06T16:56:03.044981</dc:date>
    <dc:format>image/svg+xml</dc:format>
    <dc:creator>
     <cc:Agent>
      <dc:title>Matplotlib v3.7.2, https://matplotlib.org/</dc:title>
     </cc:Agent>
    </dc:creator>
   </cc:Work>
  </rdf:RDF>
 </metadata>
 <defs>
  <style type="text/css">*{stroke-linejoin: round; stroke-linecap: butt}</style>
 </defs>
 <g id="figure_1">
  <g id="patch_1">
   <path d="M 0 654.707437 
L 637.02 654.707437 
L 637.02 0 
L 0 0 
z
" style="fill: #ffffff"/>
  </g>
  <g id="axes_1">
   <g id="patch_2">
    <path d="M 75.42 589.938375 
L 629.82 589.938375 
L 629.82 35.538375 
L 75.42 35.538375 
z
" style="fill: #ffffff"/>
   </g>
   <g id="PathCollection_1">
    <defs>
     <path id="m7627a2fdfe" d="M 0 3.24037 
C 0.859356 3.24037 1.683631 2.898944 2.291288 2.291288 
C 2.898944 1.683631 3.24037 0.859356 3.24037 0 
C 3.24037 -0.859356 2.898944 -1.683631 2.291288 -2.291288 
C 1.683631 -2.898944 0.859356 -3.24037 0 -3.24037 
C -0.859356 -3.24037 -1.683631 -2.898944 -2.291288 -2.291288 
C -2.898944 -1.683631 -3.24037 -0.859356 -3.24037 0 
C -3.24037 0.859356 -2.898944 1.683631 -2.291288 2.291288 
C -1.683631 2.898944 -0.859356 3.24037 0 3.24037 
z
" style="stroke: #1f77b4"/>
    </defs>
    <g clip-path="url(#pdc868e6e7b)">
     <use xlink:href="#m7627a2fdfe" x="103.5" y="561.289742" style="fill: #1f77b4; stroke: #1f77b4"/>
     <use xlink:href="#m7627a2fdfe" x="112.968" y="552.400835" style="fill: #1f77b4; stroke: #1f77b4"/>
     <use xlink:href="#m7627a2fdfe" x="106.74" y="558.600863" style="fill: #1f77b4; stroke: #1f77b4"/>
     <use xlink:href="#m7627a2fdfe" x="173.448" y="491.411421" style="fill: #1f77b4; stroke: #1f77b4"/>
     <use xlink:href="#m7627a2fdfe" x="152.82" y="528.764934" style="fill: #1f77b4; stroke: #1f77b4"/>
     <use xlink:href="#m7627a2fdfe" x="101.232" y="563.819709" style="fill: #1f77b4; stroke: #1f77b4"/>
     <use xlink:href="#m7627a2fdfe" x="112.824" y="552.882666" style="fill: #1f77b4; stroke: #1f77b4"/>
     <use xlink:href="#m7627a2fdfe" x="125.496" y="539.857534" style="fill: #1f77b4; stroke: #1f77b4"/>
     <use xlink:href="#m7627a2fdfe" x="525.42" y="139.346259" style="fill: #1f77b4; stroke: #1f77b4"/>
     <use xlink:href="#m7627a2fdfe" x="288.54" y="374.850902" style="fill: #1f77b4; stroke: #1f77b4"/>
     <use xlink:href="#m7627a2fdfe" x="184.896" y="480.496745" style="fill: #1f77b4; stroke: #1f77b4"/>
     <use xlink:href="#m7627a2fdfe" x="248.94" y="417.077836" style="fill: #1f77b4; stroke: #1f77b4"/>
     <use xlink:href="#m7627a2fdfe" x="122.652" y="542.06518" style="fill: #1f77b4; stroke: #1f77b4"/>
     <use xlink:href="#m7627a2fdfe" x="103.968" y="560.869357" style="fill: #1f77b4; stroke: #1f77b4"/>
     <use xlink:href="#m7627a2fdfe" x="126.54" y="538.60263" style="fill: #1f77b4; stroke: #1f77b4"/>
     <use xlink:href="#m7627a2fdfe" x="245.34" y="420.696712" style="fill: #1f77b4; stroke: #1f77b4"/>
     <use xlink:href="#m7627a2fdfe" x="253.26" y="413.23182" style="fill: #1f77b4; stroke: #1f77b4"/>
     <use xlink:href="#m7627a2fdfe" x="107.1" y="560.803856" style="fill: #1f77b4; stroke: #1f77b4"/>
     <use xlink:href="#m7627a2fdfe" x="532.62" y="133.194138" style="fill: #1f77b4; stroke: #1f77b4"/>
     <use xlink:href="#m7627a2fdfe" x="121.176" y="544.040039" style="fill: #1f77b4; stroke: #1f77b4"/>
     <use xlink:href="#m7627a2fdfe" x="525.42" y="139.877955" style="fill: #1f77b4; stroke: #1f77b4"/>
     <use xlink:href="#m7627a2fdfe" x="189.756" y="475.979548" style="fill: #1f77b4; stroke: #1f77b4"/>
     <use xlink:href="#m7627a2fdfe" x="124.992" y="540.112702" style="fill: #1f77b4; stroke: #1f77b4"/>
     <use xlink:href="#m7627a2fdfe" x="124.38" y="540.78878" style="fill: #1f77b4; stroke: #1f77b4"/>
     <use xlink:href="#m7627a2fdfe" x="352.26" y="313.202389" style="fill: #1f77b4; stroke: #1f77b4"/>
     <use xlink:href="#m7627a2fdfe" x="125.82" y="539.434128" style="fill: #1f77b4; stroke: #1f77b4"/>
     <use xlink:href="#m7627a2fdfe" x="177.66" y="487.26439" style="fill: #1f77b4; stroke: #1f77b4"/>
     <use xlink:href="#m7627a2fdfe" x="130.212" y="535.137197" style="fill: #1f77b4; stroke: #1f77b4"/>
     <use xlink:href="#m7627a2fdfe" x="169.38" y="495.94087" style="fill: #1f77b4; stroke: #1f77b4"/>
     <use xlink:href="#m7627a2fdfe" x="130.968" y="532.370149" style="fill: #1f77b4; stroke: #1f77b4"/>
     <use xlink:href="#m7627a2fdfe" x="193.14" y="472.146303" style="fill: #1f77b4; stroke: #1f77b4"/>
     <use xlink:href="#m7627a2fdfe" x="127.62" y="537.917129" style="fill: #1f77b4; stroke: #1f77b4"/>
     <use xlink:href="#m7627a2fdfe" x="108.18" y="556.640812" style="fill: #1f77b4; stroke: #1f77b4"/>
     <use xlink:href="#m7627a2fdfe" x="521.82" y="142.989322" style="fill: #1f77b4; stroke: #1f77b4"/>
     <use xlink:href="#m7627a2fdfe" x="482.22" y="183.157489" style="fill: #1f77b4; stroke: #1f77b4"/>
     <use xlink:href="#m7627a2fdfe" x="101.052" y="564.388758" style="fill: #1f77b4; stroke: #1f77b4"/>
     <use xlink:href="#m7627a2fdfe" x="108.324" y="557.257343" style="fill: #1f77b4; stroke: #1f77b4"/>
     <use xlink:href="#m7627a2fdfe" x="114.984" y="550.718468" style="fill: #1f77b4; stroke: #1f77b4"/>
     <use xlink:href="#m7627a2fdfe" x="125.1" y="540.203974" style="fill: #1f77b4; stroke: #1f77b4"/>
     <use xlink:href="#m7627a2fdfe" x="101.052" y="564.245699" style="fill: #1f77b4; stroke: #1f77b4"/>
     <use xlink:href="#m7627a2fdfe" x="228.42" y="436.90064" style="fill: #1f77b4; stroke: #1f77b4"/>
     <use xlink:href="#m7627a2fdfe" x="101.052" y="564.198129" style="fill: #1f77b4; stroke: #1f77b4"/>
     <use xlink:href="#m7627a2fdfe" x="183.24" y="481.948039" style="fill: #1f77b4; stroke: #1f77b4"/>
     <use xlink:href="#m7627a2fdfe" x="102.78" y="560.869357" style="fill: #1f77b4; stroke: #1f77b4"/>
     <use xlink:href="#m7627a2fdfe" x="568.62" y="96.866213" style="fill: #1f77b4; stroke: #1f77b4"/>
     <use xlink:href="#m7627a2fdfe" x="113.22" y="552.032047" style="fill: #1f77b4; stroke: #1f77b4"/>
     <use xlink:href="#m7627a2fdfe" x="111.78" y="553.522456" style="fill: #1f77b4; stroke: #1f77b4"/>
     <use xlink:href="#m7627a2fdfe" x="102.816" y="562.63488" style="fill: #1f77b4; stroke: #1f77b4"/>
     <use xlink:href="#m7627a2fdfe" x="170.82" y="494.849435" style="fill: #1f77b4; stroke: #1f77b4"/>
     <use xlink:href="#m7627a2fdfe" x="120.456" y="544.889907" style="fill: #1f77b4; stroke: #1f77b4"/>
     <use xlink:href="#m7627a2fdfe" x="102.78" y="562.318883" style="fill: #1f77b4; stroke: #1f77b4"/>
     <use xlink:href="#m7627a2fdfe" x="150.3" y="514.787612" style="fill: #1f77b4; stroke: #1f77b4"/>
     <use xlink:href="#m7627a2fdfe" x="146.7" y="518.981295" style="fill: #1f77b4; stroke: #1f77b4"/>
     <use xlink:href="#m7627a2fdfe" x="103.86" y="561.961451" style="fill: #1f77b4; stroke: #1f77b4"/>
     <use xlink:href="#m7627a2fdfe" x="177.66" y="488.686812" style="fill: #1f77b4; stroke: #1f77b4"/>
     <use xlink:href="#m7627a2fdfe" x="152.46" y="513.207647" style="fill: #1f77b4; stroke: #1f77b4"/>
     <use xlink:href="#m7627a2fdfe" x="104.436" y="560.862996" style="fill: #1f77b4; stroke: #1f77b4"/>
     <use xlink:href="#m7627a2fdfe" x="121.932" y="544.472182" style="fill: #1f77b4; stroke: #1f77b4"/>
     <use xlink:href="#m7627a2fdfe" x="135.9" y="527.030095" style="fill: #1f77b4; stroke: #1f77b4"/>
     <use xlink:href="#m7627a2fdfe" x="169.38" y="495.794047" style="fill: #1f77b4; stroke: #1f77b4"/>
     <use xlink:href="#m7627a2fdfe" x="130.86" y="534.537861" style="fill: #1f77b4; stroke: #1f77b4"/>
     <use xlink:href="#m7627a2fdfe" x="352.26" y="313.202389" style="fill: #1f77b4; stroke: #1f77b4"/>
     <use xlink:href="#m7627a2fdfe" x="153.54" y="511.860268" style="fill: #1f77b4; stroke: #1f77b4"/>
     <use xlink:href="#m7627a2fdfe" x="120.06" y="543.623437" style="fill: #1f77b4; stroke: #1f77b4"/>
     <use xlink:href="#m7627a2fdfe" x="104.328" y="560.898245" style="fill: #1f77b4; stroke: #1f77b4"/>
     <use xlink:href="#m7627a2fdfe" x="110.124" y="554.894594" style="fill: #1f77b4; stroke: #1f77b4"/>
     <use xlink:href="#m7627a2fdfe" x="114.912" y="550.452835" style="fill: #1f77b4; stroke: #1f77b4"/>
     <use xlink:href="#m7627a2fdfe" x="101.376" y="564.134178" style="fill: #1f77b4; stroke: #1f77b4"/>
     <use xlink:href="#m7627a2fdfe" x="102.06" y="562.864408" style="fill: #1f77b4; stroke: #1f77b4"/>
     <use xlink:href="#m7627a2fdfe" x="155.808" y="509.070244" style="fill: #1f77b4; stroke: #1f77b4"/>
     <use xlink:href="#m7627a2fdfe" x="392.22" y="260.070639" style="fill: #1f77b4; stroke: #1f77b4"/>
     <use xlink:href="#m7627a2fdfe" x="135.9" y="525.156977" style="fill: #1f77b4; stroke: #1f77b4"/>
     <use xlink:href="#m7627a2fdfe" x="152.424" y="512.986378" style="fill: #1f77b4; stroke: #1f77b4"/>
     <use xlink:href="#m7627a2fdfe" x="108.54" y="557.28961" style="fill: #1f77b4; stroke: #1f77b4"/>
     <use xlink:href="#m7627a2fdfe" x="248.94" y="416.305859" style="fill: #1f77b4; stroke: #1f77b4"/>
     <use xlink:href="#m7627a2fdfe" x="248.94" y="416.305859" style="fill: #1f77b4; stroke: #1f77b4"/>
     <use xlink:href="#m7627a2fdfe" x="160.74" y="504.291652" style="fill: #1f77b4; stroke: #1f77b4"/>
     <use xlink:href="#m7627a2fdfe" x="102.528" y="562.797454" style="fill: #1f77b4; stroke: #1f77b4"/>
     <use xlink:href="#m7627a2fdfe" x="148.14" y="516.847286" style="fill: #1f77b4; stroke: #1f77b4"/>
     <use xlink:href="#m7627a2fdfe" x="105.264" y="560.869357" style="fill: #1f77b4; stroke: #1f77b4"/>
     <use xlink:href="#m7627a2fdfe" x="116.46" y="548.944358" style="fill: #1f77b4; stroke: #1f77b4"/>
     <use xlink:href="#m7627a2fdfe" x="128.052" y="537.360385" style="fill: #1f77b4; stroke: #1f77b4"/>
     <use xlink:href="#m7627a2fdfe" x="155.808" y="507.230915" style="fill: #1f77b4; stroke: #1f77b4"/>
     <use xlink:href="#m7627a2fdfe" x="219.06" y="446.090973" style="fill: #1f77b4; stroke: #1f77b4"/>
     <use xlink:href="#m7627a2fdfe" x="102.348" y="560.803856" style="fill: #1f77b4; stroke: #1f77b4"/>
     <use xlink:href="#m7627a2fdfe" x="192.42" y="472.385291" style="fill: #1f77b4; stroke: #1f77b4"/>
     <use xlink:href="#m7627a2fdfe" x="227.124" y="437.987519" style="fill: #1f77b4; stroke: #1f77b4"/>
     <use xlink:href="#m7627a2fdfe" x="161.82" y="505.178264" style="fill: #1f77b4; stroke: #1f77b4"/>
     <use xlink:href="#m7627a2fdfe" x="153.828" y="511.821936" style="fill: #1f77b4; stroke: #1f77b4"/>
     <use xlink:href="#m7627a2fdfe" x="511.02" y="154.775334" style="fill: #1f77b4; stroke: #1f77b4"/>
     <use xlink:href="#m7627a2fdfe" x="525.42" y="139.877955" style="fill: #1f77b4; stroke: #1f77b4"/>
     <use xlink:href="#m7627a2fdfe" x="439.02" y="260.070639" style="fill: #1f77b4; stroke: #1f77b4"/>
     <use xlink:href="#m7627a2fdfe" x="147.06" y="527.030095" style="fill: #1f77b4; stroke: #1f77b4"/>
     <use xlink:href="#m7627a2fdfe" x="116.46" y="548.765505" style="fill: #1f77b4; stroke: #1f77b4"/>
     <use xlink:href="#m7627a2fdfe" x="198.54" y="465.052139" style="fill: #1f77b4; stroke: #1f77b4"/>
     <use xlink:href="#m7627a2fdfe" x="102.96" y="560.869357" style="fill: #1f77b4; stroke: #1f77b4"/>
     <use xlink:href="#m7627a2fdfe" x="152.82" y="512.381097" style="fill: #1f77b4; stroke: #1f77b4"/>
     <use xlink:href="#m7627a2fdfe" x="124.02" y="540.186568" style="fill: #1f77b4; stroke: #1f77b4"/>
     <use xlink:href="#m7627a2fdfe" x="118.98" y="546.646322" style="fill: #1f77b4; stroke: #1f77b4"/>
     <use xlink:href="#m7627a2fdfe" x="590.22" y="183.157489" style="fill: #1f77b4; stroke: #1f77b4"/>
     <use xlink:href="#m7627a2fdfe" x="149.22" y="517.16984" style="fill: #1f77b4; stroke: #1f77b4"/>
     <use xlink:href="#m7627a2fdfe" x="146.952" y="518.470064" style="fill: #1f77b4; stroke: #1f77b4"/>
     <use xlink:href="#m7627a2fdfe" x="268.524" y="396.172075" style="fill: #1f77b4; stroke: #1f77b4"/>
     <use xlink:href="#m7627a2fdfe" x="288.288" y="383.005448" style="fill: #1f77b4; stroke: #1f77b4"/>
     <use xlink:href="#m7627a2fdfe" x="561.42" y="104.454022" style="fill: #1f77b4; stroke: #1f77b4"/>
     <use xlink:href="#m7627a2fdfe" x="260.064" y="405.86592" style="fill: #1f77b4; stroke: #1f77b4"/>
     <use xlink:href="#m7627a2fdfe" x="134.82" y="529.319471" style="fill: #1f77b4; stroke: #1f77b4"/>
     <use xlink:href="#m7627a2fdfe" x="130.14" y="534.339444" style="fill: #1f77b4; stroke: #1f77b4"/>
     <use xlink:href="#m7627a2fdfe" x="195.516" y="470.737362" style="fill: #1f77b4; stroke: #1f77b4"/>
     <use xlink:href="#m7627a2fdfe" x="137.7" y="527.986011" style="fill: #1f77b4; stroke: #1f77b4"/>
     <use xlink:href="#m7627a2fdfe" x="557.82" y="109.745951" style="fill: #1f77b4; stroke: #1f77b4"/>
     <use xlink:href="#m7627a2fdfe" x="101.124" y="564.198129" style="fill: #1f77b4; stroke: #1f77b4"/>
     <use xlink:href="#m7627a2fdfe" x="107.244" y="560.869357" style="fill: #1f77b4; stroke: #1f77b4"/>
     <use xlink:href="#m7627a2fdfe" x="241.02" y="424.257494" style="fill: #1f77b4; stroke: #1f77b4"/>
     <use xlink:href="#m7627a2fdfe" x="478.62" y="183.157489" style="fill: #1f77b4; stroke: #1f77b4"/>
     <use xlink:href="#m7627a2fdfe" x="244.62" y="420.138933" style="fill: #1f77b4; stroke: #1f77b4"/>
     <use xlink:href="#m7627a2fdfe" x="101.088" y="564.134178" style="fill: #1f77b4; stroke: #1f77b4"/>
     <use xlink:href="#m7627a2fdfe" x="219.42" y="458.260575" style="fill: #1f77b4; stroke: #1f77b4"/>
     <use xlink:href="#m7627a2fdfe" x="198.324" y="466.636274" style="fill: #1f77b4; stroke: #1f77b4"/>
     <use xlink:href="#m7627a2fdfe" x="292.032" y="374.850902" style="fill: #1f77b4; stroke: #1f77b4"/>
     <use xlink:href="#m7627a2fdfe" x="370.62" y="305.099581" style="fill: #1f77b4; stroke: #1f77b4"/>
     <use xlink:href="#m7627a2fdfe" x="219.06" y="447.896125" style="fill: #1f77b4; stroke: #1f77b4"/>
     <use xlink:href="#m7627a2fdfe" x="118.98" y="545.612468" style="fill: #1f77b4; stroke: #1f77b4"/>
     <use xlink:href="#m7627a2fdfe" x="146.7" y="518.303753" style="fill: #1f77b4; stroke: #1f77b4"/>
     <use xlink:href="#m7627a2fdfe" x="529.02" y="136.762927" style="fill: #1f77b4; stroke: #1f77b4"/>
     <use xlink:href="#m7627a2fdfe" x="127.26" y="538.183753" style="fill: #1f77b4; stroke: #1f77b4"/>
     <use xlink:href="#m7627a2fdfe" x="147.06" y="525.156977" style="fill: #1f77b4; stroke: #1f77b4"/>
     <use xlink:href="#m7627a2fdfe" x="101.052" y="564.255929" style="fill: #1f77b4; stroke: #1f77b4"/>
     <use xlink:href="#m7627a2fdfe" x="193.14" y="472.082351" style="fill: #1f77b4; stroke: #1f77b4"/>
     <use xlink:href="#m7627a2fdfe" x="160.74" y="504.789767" style="fill: #1f77b4; stroke: #1f77b4"/>
     <use xlink:href="#m7627a2fdfe" x="503.82" y="161.13122" style="fill: #1f77b4; stroke: #1f77b4"/>
     <use xlink:href="#m7627a2fdfe" x="160.344" y="504.573229" style="fill: #1f77b4; stroke: #1f77b4"/>
     <use xlink:href="#m7627a2fdfe" x="140.436" y="524.828187" style="fill: #1f77b4; stroke: #1f77b4"/>
     <use xlink:href="#m7627a2fdfe" x="345.888" y="319.249918" style="fill: #1f77b4; stroke: #1f77b4"/>
     <use xlink:href="#m7627a2fdfe" x="101.592" y="563.79819" style="fill: #1f77b4; stroke: #1f77b4"/>
     <use xlink:href="#m7627a2fdfe" x="511.02" y="152.493933" style="fill: #1f77b4; stroke: #1f77b4"/>
     <use xlink:href="#m7627a2fdfe" x="127.62" y="538.095982" style="fill: #1f77b4; stroke: #1f77b4"/>
     <use xlink:href="#m7627a2fdfe" x="557.82" y="107.616478" style="fill: #1f77b4; stroke: #1f77b4"/>
     <use xlink:href="#m7627a2fdfe" x="101.88" y="563.248862" style="fill: #1f77b4; stroke: #1f77b4"/>
     <use xlink:href="#m7627a2fdfe" x="123.66" y="543.623437" style="fill: #1f77b4; stroke: #1f77b4"/>
     <use xlink:href="#m7627a2fdfe" x="155.34" y="509.97378" style="fill: #1f77b4; stroke: #1f77b4"/>
     <use xlink:href="#m7627a2fdfe" x="123.66" y="528.764934" style="fill: #1f77b4; stroke: #1f77b4"/>
     <use xlink:href="#m7627a2fdfe" x="108.18" y="557.076836" style="fill: #1f77b4; stroke: #1f77b4"/>
     <use xlink:href="#m7627a2fdfe" x="253.26" y="411.533356" style="fill: #1f77b4; stroke: #1f77b4"/>
     <use xlink:href="#m7627a2fdfe" x="281.484" y="388.062783" style="fill: #1f77b4; stroke: #1f77b4"/>
     <use xlink:href="#m7627a2fdfe" x="171.792" y="491.907627" style="fill: #1f77b4; stroke: #1f77b4"/>
     <use xlink:href="#m7627a2fdfe" x="352.62" y="305.099581" style="fill: #1f77b4; stroke: #1f77b4"/>
     <use xlink:href="#m7627a2fdfe" x="120.78" y="544.05076" style="fill: #1f77b4; stroke: #1f77b4"/>
     <use xlink:href="#m7627a2fdfe" x="160.164" y="506.065492" style="fill: #1f77b4; stroke: #1f77b4"/>
     <use xlink:href="#m7627a2fdfe" x="158.22" y="506.840969" style="fill: #1f77b4; stroke: #1f77b4"/>
     <use xlink:href="#m7627a2fdfe" x="507.42" y="158.932192" style="fill: #1f77b4; stroke: #1f77b4"/>
     <use xlink:href="#m7627a2fdfe" x="550.62" y="115.290075" style="fill: #1f77b4; stroke: #1f77b4"/>
     <use xlink:href="#m7627a2fdfe" x="259.092" y="405.855477" style="fill: #1f77b4; stroke: #1f77b4"/>
     <use xlink:href="#m7627a2fdfe" x="101.628" y="563.555715" style="fill: #1f77b4; stroke: #1f77b4"/>
     <use xlink:href="#m7627a2fdfe" x="137.34" y="528.082254" style="fill: #1f77b4; stroke: #1f77b4"/>
     <use xlink:href="#m7627a2fdfe" x="207.18" y="457.999589" style="fill: #1f77b4; stroke: #1f77b4"/>
     <use xlink:href="#m7627a2fdfe" x="155.412" y="510.26656" style="fill: #1f77b4; stroke: #1f77b4"/>
     <use xlink:href="#m7627a2fdfe" x="253.26" y="413.96649" style="fill: #1f77b4; stroke: #1f77b4"/>
     <use xlink:href="#m7627a2fdfe" x="161.1" y="508.991292" style="fill: #1f77b4; stroke: #1f77b4"/>
     <use xlink:href="#m7627a2fdfe" x="395.82" y="269.007379" style="fill: #1f77b4; stroke: #1f77b4"/>
     <use xlink:href="#m7627a2fdfe" x="103.572" y="561.236605" style="fill: #1f77b4; stroke: #1f77b4"/>
     <use xlink:href="#m7627a2fdfe" x="125.496" y="539.907618" style="fill: #1f77b4; stroke: #1f77b4"/>
     <use xlink:href="#m7627a2fdfe" x="359.82" y="305.16921" style="fill: #1f77b4; stroke: #1f77b4"/>
     <use xlink:href="#m7627a2fdfe" x="248.22" y="417.207272" style="fill: #1f77b4; stroke: #1f77b4"/>
     <use xlink:href="#m7627a2fdfe" x="115.02" y="550.280896" style="fill: #1f77b4; stroke: #1f77b4"/>
     <use xlink:href="#m7627a2fdfe" x="101.052" y="564.398398" style="fill: #1f77b4; stroke: #1f77b4"/>
     <use xlink:href="#m7627a2fdfe" x="193.14" y="472.146303" style="fill: #1f77b4; stroke: #1f77b4"/>
     <use xlink:href="#m7627a2fdfe" x="149.94" y="515.209211" style="fill: #1f77b4; stroke: #1f77b4"/>
     <use xlink:href="#m7627a2fdfe" x="460.62" y="183.157489" style="fill: #1f77b4; stroke: #1f77b4"/>
     <use xlink:href="#m7627a2fdfe" x="128.052" y="537.507234" style="fill: #1f77b4; stroke: #1f77b4"/>
     <use xlink:href="#m7627a2fdfe" x="279.864" y="383.005448" style="fill: #1f77b4; stroke: #1f77b4"/>
     <use xlink:href="#m7627a2fdfe" x="105.408" y="559.975166" style="fill: #1f77b4; stroke: #1f77b4"/>
     <use xlink:href="#m7627a2fdfe" x="428.22" y="237.696667" style="fill: #1f77b4; stroke: #1f77b4"/>
     <use xlink:href="#m7627a2fdfe" x="218.232" y="448.727663" style="fill: #1f77b4; stroke: #1f77b4"/>
     <use xlink:href="#m7627a2fdfe" x="118.26" y="546.71883" style="fill: #1f77b4; stroke: #1f77b4"/>
    </g>
   </g>
   <g id="PathCollection_2">
    <defs>
     <path id="mff7806d756" d="M 0 3.24037 
C 0.859356 3.24037 1.683631 2.898944 2.291288 2.291288 
C 2.898944 1.683631 3.24037 0.859356 3.24037 0 
C 3.24037 -0.859356 2.898944 -1.683631 2.291288 -2.291288 
C 1.683631 -2.898944 0.859356 -3.24037 0 -3.24037 
C -0.859356 -3.24037 -1.683631 -2.898944 -2.291288 -2.291288 
C -2.898944 -1.683631 -3.24037 -0.859356 -3.24037 0 
C -3.24037 0.859356 -2.898944 1.683631 -2.291288 2.291288 
C -1.683631 2.898944 -0.859356 3.24037 0 3.24037 
z
" style="stroke: #ff7f0e"/>
    </defs>
    <g clip-path="url(#pdc868e6e7b)">
     <use xlink:href="#mff7806d756" x="253.26" y="411.533356" style="fill: #ff7f0e; stroke: #ff7f0e"/>
     <use xlink:href="#mff7806d756" x="147.42" y="512.029916" style="fill: #ff7f0e; stroke: #ff7f0e"/>
     <use xlink:href="#mff7806d756" x="130.5" y="528.312997" style="fill: #ff7f0e; stroke: #ff7f0e"/>
     <use xlink:href="#mff7806d756" x="181.26" y="492.66675" style="fill: #ff7f0e; stroke: #ff7f0e"/>
     <use xlink:href="#mff7806d756" x="529.02" y="152.493933" style="fill: #ff7f0e; stroke: #ff7f0e"/>
     <use xlink:href="#mff7806d756" x="496.62" y="136.132228" style="fill: #ff7f0e; stroke: #ff7f0e"/>
     <use xlink:href="#mff7806d756" x="117.072" y="540.112702" style="fill: #ff7f0e; stroke: #ff7f0e"/>
     <use xlink:href="#mff7806d756" x="115.128" y="542.573007" style="fill: #ff7f0e; stroke: #ff7f0e"/>
     <use xlink:href="#mff7806d756" x="102.888" y="560.869357" style="fill: #ff7f0e; stroke: #ff7f0e"/>
     <use xlink:href="#mff7806d756" x="105.3" y="531.497488" style="fill: #ff7f0e; stroke: #ff7f0e"/>
     <use xlink:href="#mff7806d756" x="104.4" y="523.305253" style="fill: #ff7f0e; stroke: #ff7f0e"/>
     <use xlink:href="#mff7806d756" x="155.232" y="524.757766" style="fill: #ff7f0e; stroke: #ff7f0e"/>
     <use xlink:href="#mff7806d756" x="151.02" y="537.618333" style="fill: #ff7f0e; stroke: #ff7f0e"/>
     <use xlink:href="#mff7806d756" x="140.22" y="501.751508" style="fill: #ff7f0e; stroke: #ff7f0e"/>
     <use xlink:href="#mff7806d756" x="103.392" y="564.162283" style="fill: #ff7f0e; stroke: #ff7f0e"/>
     <use xlink:href="#mff7806d756" x="482.22" y="170.99078" style="fill: #ff7f0e; stroke: #ff7f0e"/>
     <use xlink:href="#mff7806d756" x="248.94" y="417.077836" style="fill: #ff7f0e; stroke: #ff7f0e"/>
     <use xlink:href="#mff7806d756" x="102.564" y="562.858712" style="fill: #ff7f0e; stroke: #ff7f0e"/>
     <use xlink:href="#mff7806d756" x="194.58" y="421.543852" style="fill: #ff7f0e; stroke: #ff7f0e"/>
     <use xlink:href="#mff7806d756" x="130.212" y="541.172772" style="fill: #ff7f0e; stroke: #ff7f0e"/>
     <use xlink:href="#mff7806d756" x="259.02" y="405.292549" style="fill: #ff7f0e; stroke: #ff7f0e"/>
     <use xlink:href="#mff7806d756" x="149.94" y="516.014665" style="fill: #ff7f0e; stroke: #ff7f0e"/>
     <use xlink:href="#mff7806d756" x="171.684" y="480.095905" style="fill: #ff7f0e; stroke: #ff7f0e"/>
     <use xlink:href="#mff7806d756" x="557.82" y="109.745951" style="fill: #ff7f0e; stroke: #ff7f0e"/>
     <use xlink:href="#mff7806d756" x="130.392" y="563.112867" style="fill: #ff7f0e; stroke: #ff7f0e"/>
     <use xlink:href="#mff7806d756" x="154.116" y="501.368416" style="fill: #ff7f0e; stroke: #ff7f0e"/>
     <use xlink:href="#mff7806d756" x="124.884" y="546.594029" style="fill: #ff7f0e; stroke: #ff7f0e"/>
     <use xlink:href="#mff7806d756" x="529.02" y="116.199806" style="fill: #ff7f0e; stroke: #ff7f0e"/>
     <use xlink:href="#mff7806d756" x="154.62" y="506.665749" style="fill: #ff7f0e; stroke: #ff7f0e"/>
     <use xlink:href="#mff7806d756" x="122.94" y="516.698677" style="fill: #ff7f0e; stroke: #ff7f0e"/>
     <use xlink:href="#mff7806d756" x="103.428" y="565.04737" style="fill: #ff7f0e; stroke: #ff7f0e"/>
     <use xlink:href="#mff7806d756" x="109.26" y="556.565149" style="fill: #ff7f0e; stroke: #ff7f0e"/>
     <use xlink:href="#mff7806d756" x="274.176" y="391.161181" style="fill: #ff7f0e; stroke: #ff7f0e"/>
     <use xlink:href="#mff7806d756" x="134.1" y="550.803603" style="fill: #ff7f0e; stroke: #ff7f0e"/>
     <use xlink:href="#mff7806d756" x="101.412" y="564.398398" style="fill: #ff7f0e; stroke: #ff7f0e"/>
     <use xlink:href="#mff7806d756" x="119.34" y="525.229819" style="fill: #ff7f0e; stroke: #ff7f0e"/>
     <use xlink:href="#mff7806d756" x="177.228" y="466.636274" style="fill: #ff7f0e; stroke: #ff7f0e"/>
     <use xlink:href="#mff7806d756" x="160.74" y="509.867335" style="fill: #ff7f0e; stroke: #ff7f0e"/>
     <use xlink:href="#mff7806d756" x="170.46" y="475.378994" style="fill: #ff7f0e; stroke: #ff7f0e"/>
     <use xlink:href="#mff7806d756" x="101.268" y="565.061781" style="fill: #ff7f0e; stroke: #ff7f0e"/>
     <use xlink:href="#mff7806d756" x="511.02" y="154.775334" style="fill: #ff7f0e; stroke: #ff7f0e"/>
     <use xlink:href="#mff7806d756" x="182.736" y="482.627963" style="fill: #ff7f0e; stroke: #ff7f0e"/>
     <use xlink:href="#mff7806d756" x="102.996" y="557.417165" style="fill: #ff7f0e; stroke: #ff7f0e"/>
     <use xlink:href="#mff7806d756" x="219.06" y="465.052139" style="fill: #ff7f0e; stroke: #ff7f0e"/>
    </g>
   </g>
   <g id="matplotlib.axis_1">
    <g id="xtick_1">
     <g id="line2d_1">
      <defs>
       <path id="ma4f9a1318b" d="M 0 0 
L 0 3 
" style="stroke: #000000; stroke-width: 3"/>
      </defs>
      <g>
       <use xlink:href="#ma4f9a1318b" x="100.62" y="589.938375" style="stroke: #000000; stroke-width: 3"/>
      </g>
     </g>
     <g id="text_1">
      <!-- 0 -->
      <g transform="translate(96.12 608.937125) scale(0.18 -0.18)">
       <defs>
        <path id="TimesNewRomanPSMT-30" d="M 231 2094 
Q 231 2819 450 3342 
Q 669 3866 1031 4122 
Q 1313 4325 1613 4325 
Q 2100 4325 2488 3828 
Q 2972 3213 2972 2159 
Q 2972 1422 2759 906 
Q 2547 391 2217 158 
Q 1888 -75 1581 -75 
Q 975 -75 572 641 
Q 231 1244 231 2094 
z
M 844 2016 
Q 844 1141 1059 588 
Q 1238 122 1591 122 
Q 1759 122 1940 273 
Q 2122 425 2216 781 
Q 2359 1319 2359 2297 
Q 2359 3022 2209 3506 
Q 2097 3866 1919 4016 
Q 1791 4119 1609 4119 
Q 1397 4119 1231 3928 
Q 1006 3669 925 3112 
Q 844 2556 844 2016 
z
" transform="scale(0.015625)"/>
       </defs>
       <use xlink:href="#TimesNewRomanPSMT-30"/>
      </g>
     </g>
    </g>
    <g id="xtick_2">
     <g id="line2d_2">
      <g>
       <use xlink:href="#ma4f9a1318b" x="172.62" y="589.938375" style="stroke: #000000; stroke-width: 3"/>
      </g>
     </g>
     <g id="text_2">
      <!-- 20 -->
      <g transform="translate(163.62 608.937125) scale(0.18 -0.18)">
       <defs>
        <path id="TimesNewRomanPSMT-32" d="M 2934 816 
L 2638 0 
L 138 0 
L 138 116 
Q 1241 1122 1691 1759 
Q 2141 2397 2141 2925 
Q 2141 3328 1894 3587 
Q 1647 3847 1303 3847 
Q 991 3847 742 3664 
Q 494 3481 375 3128 
L 259 3128 
Q 338 3706 661 4015 
Q 984 4325 1469 4325 
Q 1984 4325 2329 3994 
Q 2675 3663 2675 3213 
Q 2675 2891 2525 2569 
Q 2294 2063 1775 1497 
Q 997 647 803 472 
L 1909 472 
Q 2247 472 2383 497 
Q 2519 522 2628 598 
Q 2738 675 2819 816 
L 2934 816 
z
" transform="scale(0.015625)"/>
       </defs>
       <use xlink:href="#TimesNewRomanPSMT-32"/>
       <use xlink:href="#TimesNewRomanPSMT-30" x="50"/>
      </g>
     </g>
    </g>
    <g id="xtick_3">
     <g id="line2d_3">
      <g>
       <use xlink:href="#ma4f9a1318b" x="244.62" y="589.938375" style="stroke: #000000; stroke-width: 3"/>
      </g>
     </g>
     <g id="text_3">
      <!-- 40 -->
      <g transform="translate(235.62 608.937125) scale(0.18 -0.18)">
       <defs>
        <path id="TimesNewRomanPSMT-34" d="M 2978 1563 
L 2978 1119 
L 2409 1119 
L 2409 0 
L 1894 0 
L 1894 1119 
L 100 1119 
L 100 1519 
L 2066 4325 
L 2409 4325 
L 2409 1563 
L 2978 1563 
z
M 1894 1563 
L 1894 3666 
L 406 1563 
L 1894 1563 
z
" transform="scale(0.015625)"/>
       </defs>
       <use xlink:href="#TimesNewRomanPSMT-34"/>
       <use xlink:href="#TimesNewRomanPSMT-30" x="50"/>
      </g>
     </g>
    </g>
    <g id="xtick_4">
     <g id="line2d_4">
      <g>
       <use xlink:href="#ma4f9a1318b" x="316.62" y="589.938375" style="stroke: #000000; stroke-width: 3"/>
      </g>
     </g>
     <g id="text_4">
      <!-- 60 -->
      <g transform="translate(307.62 608.937125) scale(0.18 -0.18)">
       <defs>
        <path id="TimesNewRomanPSMT-36" d="M 2869 4325 
L 2869 4209 
Q 2456 4169 2195 4045 
Q 1934 3922 1679 3669 
Q 1425 3416 1258 3105 
Q 1091 2794 978 2366 
Q 1428 2675 1881 2675 
Q 2316 2675 2634 2325 
Q 2953 1975 2953 1425 
Q 2953 894 2631 456 
Q 2244 -75 1606 -75 
Q 1172 -75 869 213 
Q 275 772 275 1663 
Q 275 2231 503 2743 
Q 731 3256 1154 3653 
Q 1578 4050 1965 4187 
Q 2353 4325 2688 4325 
L 2869 4325 
z
M 925 2138 
Q 869 1716 869 1456 
Q 869 1156 980 804 
Q 1091 453 1309 247 
Q 1469 100 1697 100 
Q 1969 100 2183 356 
Q 2397 613 2397 1088 
Q 2397 1622 2184 2012 
Q 1972 2403 1581 2403 
Q 1463 2403 1327 2353 
Q 1191 2303 925 2138 
z
" transform="scale(0.015625)"/>
       </defs>
       <use xlink:href="#TimesNewRomanPSMT-36"/>
       <use xlink:href="#TimesNewRomanPSMT-30" x="50"/>
      </g>
     </g>
    </g>
    <g id="xtick_5">
     <g id="line2d_5">
      <g>
       <use xlink:href="#ma4f9a1318b" x="388.62" y="589.938375" style="stroke: #000000; stroke-width: 3"/>
      </g>
     </g>
     <g id="text_5">
      <!-- 80 -->
      <g transform="translate(379.62 608.937125) scale(0.18 -0.18)">
       <defs>
        <path id="TimesNewRomanPSMT-38" d="M 1228 2134 
Q 725 2547 579 2797 
Q 434 3047 434 3316 
Q 434 3728 753 4026 
Q 1072 4325 1600 4325 
Q 2113 4325 2425 4047 
Q 2738 3769 2738 3413 
Q 2738 3175 2569 2928 
Q 2400 2681 1866 2347 
Q 2416 1922 2594 1678 
Q 2831 1359 2831 1006 
Q 2831 559 2490 242 
Q 2150 -75 1597 -75 
Q 994 -75 656 303 
Q 388 606 388 966 
Q 388 1247 577 1523 
Q 766 1800 1228 2134 
z
M 1719 2469 
Q 2094 2806 2194 3001 
Q 2294 3197 2294 3444 
Q 2294 3772 2109 3958 
Q 1925 4144 1606 4144 
Q 1288 4144 1088 3959 
Q 888 3775 888 3528 
Q 888 3366 970 3203 
Q 1053 3041 1206 2894 
L 1719 2469 
z
M 1375 2016 
Q 1116 1797 991 1539 
Q 866 1281 866 981 
Q 866 578 1086 336 
Q 1306 94 1647 94 
Q 1984 94 2187 284 
Q 2391 475 2391 747 
Q 2391 972 2272 1150 
Q 2050 1481 1375 2016 
z
" transform="scale(0.015625)"/>
       </defs>
       <use xlink:href="#TimesNewRomanPSMT-38"/>
       <use xlink:href="#TimesNewRomanPSMT-30" x="50"/>
      </g>
     </g>
    </g>
    <g id="xtick_6">
     <g id="line2d_6">
      <g>
       <use xlink:href="#ma4f9a1318b" x="460.62" y="589.938375" style="stroke: #000000; stroke-width: 3"/>
      </g>
     </g>
     <g id="text_6">
      <!-- 100 -->
      <g transform="translate(447.12 608.937125) scale(0.18 -0.18)">
       <defs>
        <path id="TimesNewRomanPSMT-31" d="M 750 3822 
L 1781 4325 
L 1884 4325 
L 1884 747 
Q 1884 391 1914 303 
Q 1944 216 2037 169 
Q 2131 122 2419 116 
L 2419 0 
L 825 0 
L 825 116 
Q 1125 122 1212 167 
Q 1300 213 1334 289 
Q 1369 366 1369 747 
L 1369 3034 
Q 1369 3497 1338 3628 
Q 1316 3728 1258 3775 
Q 1200 3822 1119 3822 
Q 1003 3822 797 3725 
L 750 3822 
z
" transform="scale(0.015625)"/>
       </defs>
       <use xlink:href="#TimesNewRomanPSMT-31"/>
       <use xlink:href="#TimesNewRomanPSMT-30" x="50"/>
       <use xlink:href="#TimesNewRomanPSMT-30" x="100"/>
      </g>
     </g>
    </g>
    <g id="xtick_7">
     <g id="line2d_7">
      <g>
       <use xlink:href="#ma4f9a1318b" x="532.62" y="589.938375" style="stroke: #000000; stroke-width: 3"/>
      </g>
     </g>
     <g id="text_7">
      <!-- 120 -->
      <g transform="translate(519.12 608.937125) scale(0.18 -0.18)">
       <use xlink:href="#TimesNewRomanPSMT-31"/>
       <use xlink:href="#TimesNewRomanPSMT-32" x="50"/>
       <use xlink:href="#TimesNewRomanPSMT-30" x="100"/>
      </g>
     </g>
    </g>
    <g id="xtick_8">
     <g id="line2d_8">
      <g>
       <use xlink:href="#ma4f9a1318b" x="604.62" y="589.938375" style="stroke: #000000; stroke-width: 3"/>
      </g>
     </g>
     <g id="text_8">
      <!-- 140 -->
      <g transform="translate(591.12 608.937125) scale(0.18 -0.18)">
       <use xlink:href="#TimesNewRomanPSMT-31"/>
       <use xlink:href="#TimesNewRomanPSMT-34" x="50"/>
       <use xlink:href="#TimesNewRomanPSMT-30" x="100"/>
      </g>
     </g>
    </g>
    <g id="text_9">
     <!-- True MW ($10^4$g/mol) -->
     <g transform="translate(249.06 642.227437) scale(0.24 -0.24)">
      <defs>
       <path id="TimesNewRomanPSMT-54" d="M 3703 4238 
L 3750 3244 
L 3631 3244 
Q 3597 3506 3538 3619 
Q 3441 3800 3280 3886 
Q 3119 3972 2856 3972 
L 2259 3972 
L 2259 734 
Q 2259 344 2344 247 
Q 2463 116 2709 116 
L 2856 116 
L 2856 0 
L 1059 0 
L 1059 116 
L 1209 116 
Q 1478 116 1591 278 
Q 1659 378 1659 734 
L 1659 3972 
L 1150 3972 
Q 853 3972 728 3928 
Q 566 3869 450 3700 
Q 334 3531 313 3244 
L 194 3244 
L 244 4238 
L 3703 4238 
z
" transform="scale(0.015625)"/>
       <path id="TimesNewRomanPSMT-72" d="M 1038 2947 
L 1038 2303 
Q 1397 2947 1775 2947 
Q 1947 2947 2059 2842 
Q 2172 2738 2172 2600 
Q 2172 2478 2090 2393 
Q 2009 2309 1897 2309 
Q 1788 2309 1652 2417 
Q 1516 2525 1450 2525 
Q 1394 2525 1328 2463 
Q 1188 2334 1038 2041 
L 1038 669 
Q 1038 431 1097 309 
Q 1138 225 1241 169 
Q 1344 113 1538 113 
L 1538 0 
L 72 0 
L 72 113 
Q 291 113 397 181 
Q 475 231 506 341 
Q 522 394 522 644 
L 522 1753 
Q 522 2253 501 2348 
Q 481 2444 426 2487 
Q 372 2531 291 2531 
Q 194 2531 72 2484 
L 41 2597 
L 906 2947 
L 1038 2947 
z
" transform="scale(0.015625)"/>
       <path id="TimesNewRomanPSMT-75" d="M 2709 2863 
L 2709 1128 
Q 2709 631 2732 520 
Q 2756 409 2807 365 
Q 2859 322 2928 322 
Q 3025 322 3147 375 
L 3191 266 
L 2334 -88 
L 2194 -88 
L 2194 519 
Q 1825 119 1631 15 
Q 1438 -88 1222 -88 
Q 981 -88 804 51 
Q 628 191 559 409 
Q 491 628 491 1028 
L 491 2306 
Q 491 2509 447 2587 
Q 403 2666 317 2708 
Q 231 2750 6 2747 
L 6 2863 
L 1009 2863 
L 1009 947 
Q 1009 547 1148 422 
Q 1288 297 1484 297 
Q 1619 297 1789 381 
Q 1959 466 2194 703 
L 2194 2325 
Q 2194 2569 2105 2655 
Q 2016 2741 1734 2747 
L 1734 2863 
L 2709 2863 
z
" transform="scale(0.015625)"/>
       <path id="TimesNewRomanPSMT-65" d="M 681 1784 
Q 678 1147 991 784 
Q 1303 422 1725 422 
Q 2006 422 2214 576 
Q 2422 731 2563 1106 
L 2659 1044 
Q 2594 616 2278 264 
Q 1963 -88 1488 -88 
Q 972 -88 605 314 
Q 238 716 238 1394 
Q 238 2128 614 2539 
Q 991 2950 1559 2950 
Q 2041 2950 2350 2633 
Q 2659 2316 2659 1784 
L 681 1784 
z
M 681 1966 
L 2006 1966 
Q 1991 2241 1941 2353 
Q 1863 2528 1708 2628 
Q 1553 2728 1384 2728 
Q 1125 2728 920 2526 
Q 716 2325 681 1966 
z
" transform="scale(0.015625)"/>
       <path id="TimesNewRomanPSMT-20" transform="scale(0.015625)"/>
       <path id="TimesNewRomanPSMT-4d" d="M 2619 0 
L 981 3566 
L 981 734 
Q 981 344 1066 247 
Q 1181 116 1431 116 
L 1581 116 
L 1581 0 
L 106 0 
L 106 116 
L 256 116 
Q 525 116 638 278 
Q 706 378 706 734 
L 706 3503 
Q 706 3784 644 3909 
Q 600 4000 483 4061 
Q 366 4122 106 4122 
L 106 4238 
L 1306 4238 
L 2844 922 
L 4356 4238 
L 5556 4238 
L 5556 4122 
L 5409 4122 
Q 5138 4122 5025 3959 
Q 4956 3859 4956 3503 
L 4956 734 
Q 4956 344 5044 247 
Q 5159 116 5409 116 
L 5556 116 
L 5556 0 
L 3756 0 
L 3756 116 
L 3906 116 
Q 4178 116 4288 278 
Q 4356 378 4356 734 
L 4356 3566 
L 2722 0 
L 2619 0 
z
" transform="scale(0.015625)"/>
       <path id="TimesNewRomanPSMT-57" d="M 5991 4238 
L 5991 4122 
Q 5825 4122 5722 4062 
Q 5619 4003 5525 3841 
Q 5463 3731 5328 3319 
L 4147 -97 
L 4022 -97 
L 3056 2613 
L 2097 -97 
L 1984 -97 
L 725 3422 
Q 584 3816 547 3888 
Q 484 4006 376 4064 
Q 269 4122 84 4122 
L 84 4238 
L 1653 4238 
L 1653 4122 
L 1578 4122 
Q 1413 4122 1325 4047 
Q 1238 3972 1238 3866 
Q 1238 3756 1375 3363 
L 2209 984 
L 2913 3006 
L 2788 3363 
L 2688 3647 
Q 2622 3803 2541 3922 
Q 2500 3981 2441 4022 
Q 2363 4078 2284 4103 
Q 2225 4122 2097 4122 
L 2097 4238 
L 3747 4238 
L 3747 4122 
L 3634 4122 
Q 3459 4122 3378 4047 
Q 3297 3972 3297 3844 
Q 3297 3684 3438 3288 
L 4250 984 
L 5056 3319 
Q 5194 3706 5194 3856 
Q 5194 3928 5148 3990 
Q 5103 4053 5034 4078 
Q 4916 4122 4725 4122 
L 4725 4238 
L 5991 4238 
z
" transform="scale(0.015625)"/>
       <path id="TimesNewRomanPSMT-28" d="M 1988 -1253 
L 1988 -1369 
Q 1516 -1131 1200 -813 
Q 750 -359 506 256 
Q 263 872 263 1534 
Q 263 2503 741 3301 
Q 1219 4100 1988 4444 
L 1988 4313 
Q 1603 4100 1356 3731 
Q 1109 3363 987 2797 
Q 866 2231 866 1616 
Q 866 947 969 400 
Q 1050 -31 1165 -292 
Q 1281 -553 1476 -793 
Q 1672 -1034 1988 -1253 
z
" transform="scale(0.015625)"/>
       <path id="TimesNewRomanPSMT-67" d="M 966 1044 
Q 703 1172 562 1401 
Q 422 1631 422 1909 
Q 422 2334 742 2640 
Q 1063 2947 1563 2947 
Q 1972 2947 2272 2747 
L 2878 2747 
Q 3013 2747 3034 2739 
Q 3056 2731 3066 2713 
Q 3084 2684 3084 2613 
Q 3084 2531 3069 2500 
Q 3059 2484 3036 2475 
Q 3013 2466 2878 2466 
L 2506 2466 
Q 2681 2241 2681 1891 
Q 2681 1491 2375 1206 
Q 2069 922 1553 922 
Q 1341 922 1119 984 
Q 981 866 932 777 
Q 884 688 884 625 
Q 884 572 936 522 
Q 988 472 1138 450 
Q 1225 438 1575 428 
Q 2219 413 2409 384 
Q 2700 344 2873 169 
Q 3047 -6 3047 -263 
Q 3047 -616 2716 -925 
Q 2228 -1381 1444 -1381 
Q 841 -1381 425 -1109 
Q 191 -953 191 -784 
Q 191 -709 225 -634 
Q 278 -519 444 -313 
Q 466 -284 763 25 
Q 600 122 533 198 
Q 466 275 466 372 
Q 466 481 555 628 
Q 644 775 966 1044 
z
M 1509 2797 
Q 1278 2797 1122 2612 
Q 966 2428 966 2047 
Q 966 1553 1178 1281 
Q 1341 1075 1591 1075 
Q 1828 1075 1981 1253 
Q 2134 1431 2134 1813 
Q 2134 2309 1919 2591 
Q 1759 2797 1509 2797 
z
M 934 0 
Q 788 -159 713 -296 
Q 638 -434 638 -550 
Q 638 -700 819 -813 
Q 1131 -1006 1722 -1006 
Q 2284 -1006 2551 -807 
Q 2819 -609 2819 -384 
Q 2819 -222 2659 -153 
Q 2497 -84 2016 -72 
Q 1313 -53 934 0 
z
" transform="scale(0.015625)"/>
       <path id="TimesNewRomanPSMT-2f" d="M 1794 4444 
L 259 -88 
L 9 -88 
L 1544 4444 
L 1794 4444 
z
" transform="scale(0.015625)"/>
       <path id="TimesNewRomanPSMT-6d" d="M 1050 2338 
Q 1363 2650 1419 2697 
Q 1559 2816 1721 2881 
Q 1884 2947 2044 2947 
Q 2313 2947 2506 2790 
Q 2700 2634 2766 2338 
Q 3088 2713 3309 2830 
Q 3531 2947 3766 2947 
Q 3994 2947 4170 2830 
Q 4347 2713 4450 2447 
Q 4519 2266 4519 1878 
L 4519 647 
Q 4519 378 4559 278 
Q 4591 209 4675 161 
Q 4759 113 4950 113 
L 4950 0 
L 3538 0 
L 3538 113 
L 3597 113 
Q 3781 113 3884 184 
Q 3956 234 3988 344 
Q 4000 397 4000 647 
L 4000 1878 
Q 4000 2228 3916 2372 
Q 3794 2572 3525 2572 
Q 3359 2572 3192 2489 
Q 3025 2406 2788 2181 
L 2781 2147 
L 2788 2013 
L 2788 647 
Q 2788 353 2820 281 
Q 2853 209 2943 161 
Q 3034 113 3253 113 
L 3253 0 
L 1806 0 
L 1806 113 
Q 2044 113 2133 169 
Q 2222 225 2256 338 
Q 2272 391 2272 647 
L 2272 1878 
Q 2272 2228 2169 2381 
Q 2031 2581 1784 2581 
Q 1616 2581 1450 2491 
Q 1191 2353 1050 2181 
L 1050 647 
Q 1050 366 1089 281 
Q 1128 197 1204 155 
Q 1281 113 1516 113 
L 1516 0 
L 100 0 
L 100 113 
Q 297 113 375 155 
Q 453 197 493 289 
Q 534 381 534 647 
L 534 1741 
Q 534 2213 506 2350 
Q 484 2453 437 2492 
Q 391 2531 309 2531 
Q 222 2531 100 2484 
L 53 2597 
L 916 2947 
L 1050 2947 
L 1050 2338 
z
" transform="scale(0.015625)"/>
       <path id="TimesNewRomanPSMT-6f" d="M 1600 2947 
Q 2250 2947 2644 2453 
Q 2978 2031 2978 1484 
Q 2978 1100 2793 706 
Q 2609 313 2286 112 
Q 1963 -88 1566 -88 
Q 919 -88 538 428 
Q 216 863 216 1403 
Q 216 1797 411 2186 
Q 606 2575 925 2761 
Q 1244 2947 1600 2947 
z
M 1503 2744 
Q 1338 2744 1170 2645 
Q 1003 2547 900 2300 
Q 797 2053 797 1666 
Q 797 1041 1045 587 
Q 1294 134 1700 134 
Q 2003 134 2200 384 
Q 2397 634 2397 1244 
Q 2397 2006 2069 2444 
Q 1847 2744 1503 2744 
z
" transform="scale(0.015625)"/>
       <path id="TimesNewRomanPSMT-6c" d="M 1184 4444 
L 1184 647 
Q 1184 378 1223 290 
Q 1263 203 1344 158 
Q 1425 113 1647 113 
L 1647 0 
L 244 0 
L 244 113 
Q 441 113 512 153 
Q 584 194 625 287 
Q 666 381 666 647 
L 666 3247 
Q 666 3731 644 3842 
Q 622 3953 573 3993 
Q 525 4034 450 4034 
Q 369 4034 244 3984 
L 191 4094 
L 1044 4444 
L 1184 4444 
z
" transform="scale(0.015625)"/>
       <path id="TimesNewRomanPSMT-29" d="M 144 4313 
L 144 4444 
Q 619 4209 934 3891 
Q 1381 3434 1625 2820 
Q 1869 2206 1869 1541 
Q 1869 572 1392 -226 
Q 916 -1025 144 -1369 
L 144 -1253 
Q 528 -1038 776 -670 
Q 1025 -303 1145 264 
Q 1266 831 1266 1447 
Q 1266 2113 1163 2663 
Q 1084 3094 967 3353 
Q 850 3613 656 3853 
Q 463 4094 144 4313 
z
" transform="scale(0.015625)"/>
      </defs>
      <use xlink:href="#TimesNewRomanPSMT-54" transform="translate(0 0.879688)"/>
      <use xlink:href="#TimesNewRomanPSMT-72" transform="translate(61.083984 0.879688)"/>
      <use xlink:href="#TimesNewRomanPSMT-75" transform="translate(94.384766 0.879688)"/>
      <use xlink:href="#TimesNewRomanPSMT-65" transform="translate(144.384766 0.879688)"/>
      <use xlink:href="#TimesNewRomanPSMT-20" transform="translate(188.769531 0.879688)"/>
      <use xlink:href="#TimesNewRomanPSMT-4d" transform="translate(213.769531 0.879688)"/>
      <use xlink:href="#TimesNewRomanPSMT-57" transform="translate(302.685547 0.879688)"/>
      <use xlink:href="#TimesNewRomanPSMT-20" transform="translate(397.070312 0.879688)"/>
      <use xlink:href="#TimesNewRomanPSMT-28" transform="translate(422.070312 0.879688)"/>
      <use xlink:href="#TimesNewRomanPSMT-31" transform="translate(455.371094 0.879688)"/>
      <use xlink:href="#TimesNewRomanPSMT-30" transform="translate(505.371094 0.879688)"/>
      <use xlink:href="#TimesNewRomanPSMT-34" transform="translate(556.816484 58.695312) scale(0.7)"/>
      <use xlink:href="#TimesNewRomanPSMT-67" transform="translate(595.946172 0.879688)"/>
      <use xlink:href="#TimesNewRomanPSMT-2f" transform="translate(645.946172 0.879688)"/>
      <use xlink:href="#TimesNewRomanPSMT-6d" transform="translate(673.729375 0.879688)"/>
      <use xlink:href="#TimesNewRomanPSMT-6f" transform="translate(751.512578 0.879688)"/>
      <use xlink:href="#TimesNewRomanPSMT-6c" transform="translate(801.512578 0.879688)"/>
      <use xlink:href="#TimesNewRomanPSMT-29" transform="translate(829.295781 0.879688)"/>
     </g>
    </g>
   </g>
   <g id="matplotlib.axis_2">
    <g id="ytick_1">
     <g id="line2d_9">
      <defs>
       <path id="mba3e3eeb41" d="M 0 0 
L -3 0 
" style="stroke: #000000; stroke-width: 3"/>
      </defs>
      <g>
       <use xlink:href="#mba3e3eeb41" x="75.42" y="564.738375" style="stroke: #000000; stroke-width: 3"/>
      </g>
     </g>
     <g id="text_10">
      <!-- 0 -->
      <g transform="translate(59.92 570.98775) scale(0.18 -0.18)">
       <use xlink:href="#TimesNewRomanPSMT-30"/>
      </g>
     </g>
    </g>
    <g id="ytick_2">
     <g id="line2d_10">
      <g>
       <use xlink:href="#mba3e3eeb41" x="75.42" y="492.738375" style="stroke: #000000; stroke-width: 3"/>
      </g>
     </g>
     <g id="text_11">
      <!-- 20 -->
      <g transform="translate(50.92 498.98775) scale(0.18 -0.18)">
       <use xlink:href="#TimesNewRomanPSMT-32"/>
       <use xlink:href="#TimesNewRomanPSMT-30" x="50"/>
      </g>
     </g>
    </g>
    <g id="ytick_3">
     <g id="line2d_11">
      <g>
       <use xlink:href="#mba3e3eeb41" x="75.42" y="420.738375" style="stroke: #000000; stroke-width: 3"/>
      </g>
     </g>
     <g id="text_12">
      <!-- 40 -->
      <g transform="translate(50.92 426.98775) scale(0.18 -0.18)">
       <use xlink:href="#TimesNewRomanPSMT-34"/>
       <use xlink:href="#TimesNewRomanPSMT-30" x="50"/>
      </g>
     </g>
    </g>
    <g id="ytick_4">
     <g id="line2d_12">
      <g>
       <use xlink:href="#mba3e3eeb41" x="75.42" y="348.738375" style="stroke: #000000; stroke-width: 3"/>
      </g>
     </g>
     <g id="text_13">
      <!-- 60 -->
      <g transform="translate(50.92 354.98775) scale(0.18 -0.18)">
       <use xlink:href="#TimesNewRomanPSMT-36"/>
       <use xlink:href="#TimesNewRomanPSMT-30" x="50"/>
      </g>
     </g>
    </g>
    <g id="ytick_5">
     <g id="line2d_13">
      <g>
       <use xlink:href="#mba3e3eeb41" x="75.42" y="276.738375" style="stroke: #000000; stroke-width: 3"/>
      </g>
     </g>
     <g id="text_14">
      <!-- 80 -->
      <g transform="translate(50.92 282.98775) scale(0.18 -0.18)">
       <use xlink:href="#TimesNewRomanPSMT-38"/>
       <use xlink:href="#TimesNewRomanPSMT-30" x="50"/>
      </g>
     </g>
    </g>
    <g id="ytick_6">
     <g id="line2d_14">
      <g>
       <use xlink:href="#mba3e3eeb41" x="75.42" y="204.738375" style="stroke: #000000; stroke-width: 3"/>
      </g>
     </g>
     <g id="text_15">
      <!-- 100 -->
      <g transform="translate(41.92 210.98775) scale(0.18 -0.18)">
       <use xlink:href="#TimesNewRomanPSMT-31"/>
       <use xlink:href="#TimesNewRomanPSMT-30" x="50"/>
       <use xlink:href="#TimesNewRomanPSMT-30" x="100"/>
      </g>
     </g>
    </g>
    <g id="ytick_7">
     <g id="line2d_15">
      <g>
       <use xlink:href="#mba3e3eeb41" x="75.42" y="132.738375" style="stroke: #000000; stroke-width: 3"/>
      </g>
     </g>
     <g id="text_16">
      <!-- 120 -->
      <g transform="translate(41.92 138.98775) scale(0.18 -0.18)">
       <use xlink:href="#TimesNewRomanPSMT-31"/>
       <use xlink:href="#TimesNewRomanPSMT-32" x="50"/>
       <use xlink:href="#TimesNewRomanPSMT-30" x="100"/>
      </g>
     </g>
    </g>
    <g id="ytick_8">
     <g id="line2d_16">
      <g>
       <use xlink:href="#mba3e3eeb41" x="75.42" y="60.738375" style="stroke: #000000; stroke-width: 3"/>
      </g>
     </g>
     <g id="text_17">
      <!-- 140 -->
      <g transform="translate(41.92 66.98775) scale(0.18 -0.18)">
       <use xlink:href="#TimesNewRomanPSMT-31"/>
       <use xlink:href="#TimesNewRomanPSMT-34" x="50"/>
       <use xlink:href="#TimesNewRomanPSMT-30" x="100"/>
      </g>
     </g>
    </g>
    <g id="text_18">
     <!-- Predicted MW ($10^4$g/mol) -->
     <g transform="translate(32.64 438.978375) rotate(-90) scale(0.24 -0.24)">
      <defs>
       <path id="TimesNewRomanPSMT-50" d="M 1313 1984 
L 1313 750 
Q 1313 350 1400 253 
Q 1519 116 1759 116 
L 1922 116 
L 1922 0 
L 106 0 
L 106 116 
L 266 116 
Q 534 116 650 291 
Q 713 388 713 750 
L 713 3488 
Q 713 3888 628 3984 
Q 506 4122 266 4122 
L 106 4122 
L 106 4238 
L 1659 4238 
Q 2228 4238 2556 4120 
Q 2884 4003 3109 3725 
Q 3334 3447 3334 3066 
Q 3334 2547 2992 2222 
Q 2650 1897 2025 1897 
Q 1872 1897 1694 1919 
Q 1516 1941 1313 1984 
z
M 1313 2163 
Q 1478 2131 1606 2115 
Q 1734 2100 1825 2100 
Q 2150 2100 2386 2351 
Q 2622 2603 2622 3003 
Q 2622 3278 2509 3514 
Q 2397 3750 2190 3867 
Q 1984 3984 1722 3984 
Q 1563 3984 1313 3925 
L 1313 2163 
z
" transform="scale(0.015625)"/>
       <path id="TimesNewRomanPSMT-64" d="M 2222 322 
Q 2013 103 1813 7 
Q 1613 -88 1381 -88 
Q 913 -88 563 304 
Q 213 697 213 1313 
Q 213 1928 600 2439 
Q 988 2950 1597 2950 
Q 1975 2950 2222 2709 
L 2222 3238 
Q 2222 3728 2198 3840 
Q 2175 3953 2125 3993 
Q 2075 4034 2000 4034 
Q 1919 4034 1784 3984 
L 1744 4094 
L 2597 4444 
L 2738 4444 
L 2738 1134 
Q 2738 631 2761 520 
Q 2784 409 2836 365 
Q 2888 322 2956 322 
Q 3041 322 3181 375 
L 3216 266 
L 2366 -88 
L 2222 -88 
L 2222 322 
z
M 2222 541 
L 2222 2016 
Q 2203 2228 2109 2403 
Q 2016 2578 1861 2667 
Q 1706 2756 1559 2756 
Q 1284 2756 1069 2509 
Q 784 2184 784 1559 
Q 784 928 1059 592 
Q 1334 256 1672 256 
Q 1956 256 2222 541 
z
" transform="scale(0.015625)"/>
       <path id="TimesNewRomanPSMT-69" d="M 928 4444 
Q 1059 4444 1151 4351 
Q 1244 4259 1244 4128 
Q 1244 3997 1151 3903 
Q 1059 3809 928 3809 
Q 797 3809 703 3903 
Q 609 3997 609 4128 
Q 609 4259 701 4351 
Q 794 4444 928 4444 
z
M 1188 2947 
L 1188 647 
Q 1188 378 1227 289 
Q 1266 200 1342 156 
Q 1419 113 1622 113 
L 1622 0 
L 231 0 
L 231 113 
Q 441 113 512 153 
Q 584 194 626 287 
Q 669 381 669 647 
L 669 1750 
Q 669 2216 641 2353 
Q 619 2453 572 2492 
Q 525 2531 444 2531 
Q 356 2531 231 2484 
L 188 2597 
L 1050 2947 
L 1188 2947 
z
" transform="scale(0.015625)"/>
       <path id="TimesNewRomanPSMT-63" d="M 2631 1088 
Q 2516 522 2178 217 
Q 1841 -88 1431 -88 
Q 944 -88 581 321 
Q 219 731 219 1428 
Q 219 2103 620 2525 
Q 1022 2947 1584 2947 
Q 2006 2947 2278 2723 
Q 2550 2500 2550 2259 
Q 2550 2141 2473 2067 
Q 2397 1994 2259 1994 
Q 2075 1994 1981 2113 
Q 1928 2178 1911 2362 
Q 1894 2547 1784 2644 
Q 1675 2738 1481 2738 
Q 1169 2738 978 2506 
Q 725 2200 725 1697 
Q 725 1184 976 792 
Q 1228 400 1656 400 
Q 1963 400 2206 609 
Q 2378 753 2541 1131 
L 2631 1088 
z
" transform="scale(0.015625)"/>
       <path id="TimesNewRomanPSMT-74" d="M 1031 3803 
L 1031 2863 
L 1700 2863 
L 1700 2644 
L 1031 2644 
L 1031 788 
Q 1031 509 1111 412 
Q 1191 316 1316 316 
Q 1419 316 1516 380 
Q 1613 444 1666 569 
L 1788 569 
Q 1678 263 1478 108 
Q 1278 -47 1066 -47 
Q 922 -47 784 33 
Q 647 113 581 261 
Q 516 409 516 719 
L 516 2644 
L 63 2644 
L 63 2747 
Q 234 2816 414 2980 
Q 594 3144 734 3369 
Q 806 3488 934 3803 
L 1031 3803 
z
" transform="scale(0.015625)"/>
      </defs>
      <use xlink:href="#TimesNewRomanPSMT-50" transform="translate(0 0.879688)"/>
      <use xlink:href="#TimesNewRomanPSMT-72" transform="translate(55.615234 0.879688)"/>
      <use xlink:href="#TimesNewRomanPSMT-65" transform="translate(88.916016 0.879688)"/>
      <use xlink:href="#TimesNewRomanPSMT-64" transform="translate(133.300781 0.879688)"/>
      <use xlink:href="#TimesNewRomanPSMT-69" transform="translate(183.300781 0.879688)"/>
      <use xlink:href="#TimesNewRomanPSMT-63" transform="translate(211.083984 0.879688)"/>
      <use xlink:href="#TimesNewRomanPSMT-74" transform="translate(255.46875 0.879688)"/>
      <use xlink:href="#TimesNewRomanPSMT-65" transform="translate(283.251953 0.879688)"/>
      <use xlink:href="#TimesNewRomanPSMT-64" transform="translate(327.636719 0.879688)"/>
      <use xlink:href="#TimesNewRomanPSMT-20" transform="translate(377.636719 0.879688)"/>
      <use xlink:href="#TimesNewRomanPSMT-4d" transform="translate(402.636719 0.879688)"/>
      <use xlink:href="#TimesNewRomanPSMT-57" transform="translate(491.552734 0.879688)"/>
      <use xlink:href="#TimesNewRomanPSMT-20" transform="translate(585.9375 0.879688)"/>
      <use xlink:href="#TimesNewRomanPSMT-28" transform="translate(610.9375 0.879688)"/>
      <use xlink:href="#TimesNewRomanPSMT-31" transform="translate(644.238281 0.879688)"/>
      <use xlink:href="#TimesNewRomanPSMT-30" transform="translate(694.238281 0.879688)"/>
      <use xlink:href="#TimesNewRomanPSMT-34" transform="translate(745.683672 58.695312) scale(0.7)"/>
      <use xlink:href="#TimesNewRomanPSMT-67" transform="translate(784.813359 0.879688)"/>
      <use xlink:href="#TimesNewRomanPSMT-2f" transform="translate(834.813359 0.879688)"/>
      <use xlink:href="#TimesNewRomanPSMT-6d" transform="translate(862.596563 0.879688)"/>
      <use xlink:href="#TimesNewRomanPSMT-6f" transform="translate(940.379766 0.879688)"/>
      <use xlink:href="#TimesNewRomanPSMT-6c" transform="translate(990.379766 0.879688)"/>
      <use xlink:href="#TimesNewRomanPSMT-29" transform="translate(1018.162969 0.879688)"/>
     </g>
    </g>
   </g>
   <g id="line2d_17">
    <path d="M 9.650937 655.707437 
L 638.02 27.338375 
" clip-path="url(#pdc868e6e7b)" style="fill: none; stroke-dasharray: 3.7,1.6; stroke-dashoffset: 0; stroke: #808080; stroke-opacity: 0.8"/>
   </g>
   <g id="patch_3">
    <path d="M 75.42 589.938375 
L 75.42 35.538375 
" style="fill: none; stroke: #000000; stroke-width: 0.8; stroke-linejoin: miter; stroke-linecap: square"/>
   </g>
   <g id="patch_4">
    <path d="M 629.82 589.938375 
L 629.82 35.538375 
" style="fill: none; stroke: #000000; stroke-width: 0.8; stroke-linejoin: miter; stroke-linecap: square"/>
   </g>
   <g id="patch_5">
    <path d="M 75.42 589.938375 
L 629.82 589.938375 
" style="fill: none; stroke: #000000; stroke-width: 0.8; stroke-linejoin: miter; stroke-linecap: square"/>
   </g>
   <g id="patch_6">
    <path d="M 75.42 35.538375 
L 629.82 35.538375 
" style="fill: none; stroke: #000000; stroke-width: 0.8; stroke-linejoin: miter; stroke-linecap: square"/>
   </g>
   <g id="text_19">
    <!-- R$^2$ : 0.9848  -->
    <g transform="translate(460.62 496.68525) scale(0.2 -0.2)">
     <defs>
      <path id="TimesNewRomanPSMT-52" d="M 4325 0 
L 3194 0 
L 1759 1981 
Q 1600 1975 1500 1975 
Q 1459 1975 1412 1976 
Q 1366 1978 1316 1981 
L 1316 750 
Q 1316 350 1403 253 
Q 1522 116 1759 116 
L 1925 116 
L 1925 0 
L 109 0 
L 109 116 
L 269 116 
Q 538 116 653 291 
Q 719 388 719 750 
L 719 3488 
Q 719 3888 631 3984 
Q 509 4122 269 4122 
L 109 4122 
L 109 4238 
L 1653 4238 
Q 2328 4238 2648 4139 
Q 2969 4041 3192 3777 
Q 3416 3513 3416 3147 
Q 3416 2756 3161 2468 
Q 2906 2181 2372 2063 
L 3247 847 
Q 3547 428 3762 290 
Q 3978 153 4325 116 
L 4325 0 
z
M 1316 2178 
Q 1375 2178 1419 2176 
Q 1463 2175 1491 2175 
Q 2097 2175 2405 2437 
Q 2713 2700 2713 3106 
Q 2713 3503 2464 3751 
Q 2216 4000 1806 4000 
Q 1625 4000 1316 3941 
L 1316 2178 
z
" transform="scale(0.015625)"/>
      <path id="TimesNewRomanPSMT-3a" d="M 903 2950 
Q 1047 2950 1148 2848 
Q 1250 2747 1250 2603 
Q 1250 2459 1148 2357 
Q 1047 2256 903 2256 
Q 759 2256 657 2357 
Q 556 2459 556 2603 
Q 556 2747 657 2848 
Q 759 2950 903 2950 
z
M 897 609 
Q 1044 609 1145 506 
Q 1247 403 1247 259 
Q 1247 116 1144 14 
Q 1041 -88 897 -88 
Q 753 -88 651 14 
Q 550 116 550 259 
Q 550 403 651 506 
Q 753 609 897 609 
z
" transform="scale(0.015625)"/>
      <path id="TimesNewRomanPSMT-2e" d="M 800 606 
Q 947 606 1047 504 
Q 1147 403 1147 259 
Q 1147 116 1045 14 
Q 944 -88 800 -88 
Q 656 -88 554 14 
Q 453 116 453 259 
Q 453 406 554 506 
Q 656 606 800 606 
z
" transform="scale(0.015625)"/>
      <path id="TimesNewRomanPSMT-39" d="M 338 -88 
L 338 28 
Q 744 34 1094 217 
Q 1444 400 1770 856 
Q 2097 1313 2225 1859 
Q 1734 1544 1338 1544 
Q 891 1544 572 1889 
Q 253 2234 253 2806 
Q 253 3363 572 3797 
Q 956 4325 1575 4325 
Q 2097 4325 2469 3894 
Q 2925 3359 2925 2575 
Q 2925 1869 2578 1258 
Q 2231 647 1613 244 
Q 1109 -88 516 -88 
L 338 -88 
z
M 2275 2091 
Q 2331 2497 2331 2741 
Q 2331 3044 2228 3395 
Q 2125 3747 1936 3934 
Q 1747 4122 1506 4122 
Q 1228 4122 1018 3872 
Q 809 3622 809 3128 
Q 809 2469 1088 2097 
Q 1291 1828 1588 1828 
Q 1731 1828 1928 1897 
Q 2125 1966 2275 2091 
z
" transform="scale(0.015625)"/>
     </defs>
     <use xlink:href="#TimesNewRomanPSMT-52" transform="translate(0 0.879688)"/>
     <use xlink:href="#TimesNewRomanPSMT-32" transform="translate(68.144609 58.695312) scale(0.7)"/>
     <use xlink:href="#TimesNewRomanPSMT-20" transform="translate(107.274297 0.879688)"/>
     <use xlink:href="#TimesNewRomanPSMT-3a" transform="translate(132.274297 0.879688)"/>
     <use xlink:href="#TimesNewRomanPSMT-20" transform="translate(160.0575 0.879688)"/>
     <use xlink:href="#TimesNewRomanPSMT-30" transform="translate(185.0575 0.879688)"/>
     <use xlink:href="#TimesNewRomanPSMT-2e" transform="translate(235.0575 0.879688)"/>
     <use xlink:href="#TimesNewRomanPSMT-39" transform="translate(260.0575 0.879688)"/>
     <use xlink:href="#TimesNewRomanPSMT-38" transform="translate(310.0575 0.879688)"/>
     <use xlink:href="#TimesNewRomanPSMT-34" transform="translate(360.0575 0.879688)"/>
     <use xlink:href="#TimesNewRomanPSMT-38" transform="translate(410.0575 0.879688)"/>
     <use xlink:href="#TimesNewRomanPSMT-20" transform="translate(460.0575 0.879688)"/>
    </g>
    <!-- MAE : 3.2379  -->
    <g transform="translate(460.62 528.738375) scale(0.2 -0.2)">
     <defs>
      <path id="TimesNewRomanPSMT-41" d="M 2928 1419 
L 1288 1419 
L 1000 750 
Q 894 503 894 381 
Q 894 284 986 211 
Q 1078 138 1384 116 
L 1384 0 
L 50 0 
L 50 116 
Q 316 163 394 238 
Q 553 388 747 847 
L 2238 4334 
L 2347 4334 
L 3822 809 
Q 4000 384 4145 257 
Q 4291 131 4550 116 
L 4550 0 
L 2878 0 
L 2878 116 
Q 3131 128 3220 200 
Q 3309 272 3309 375 
Q 3309 513 3184 809 
L 2928 1419 
z
M 2841 1650 
L 2122 3363 
L 1384 1650 
L 2841 1650 
z
" transform="scale(0.015625)"/>
      <path id="TimesNewRomanPSMT-45" d="M 1338 4006 
L 1338 2331 
L 2269 2331 
Q 2631 2331 2753 2441 
Q 2916 2584 2934 2947 
L 3050 2947 
L 3050 1472 
L 2934 1472 
Q 2891 1781 2847 1869 
Q 2791 1978 2662 2040 
Q 2534 2103 2269 2103 
L 1338 2103 
L 1338 706 
Q 1338 425 1363 364 
Q 1388 303 1450 267 
Q 1513 231 1688 231 
L 2406 231 
Q 2766 231 2928 281 
Q 3091 331 3241 478 
Q 3434 672 3638 1063 
L 3763 1063 
L 3397 0 
L 131 0 
L 131 116 
L 281 116 
Q 431 116 566 188 
Q 666 238 702 338 
Q 738 438 738 747 
L 738 3500 
Q 738 3903 656 3997 
Q 544 4122 281 4122 
L 131 4122 
L 131 4238 
L 3397 4238 
L 3444 3309 
L 3322 3309 
Q 3256 3644 3176 3769 
Q 3097 3894 2941 3959 
Q 2816 4006 2500 4006 
L 1338 4006 
z
" transform="scale(0.015625)"/>
      <path id="TimesNewRomanPSMT-33" d="M 325 3431 
Q 506 3859 782 4092 
Q 1059 4325 1472 4325 
Q 1981 4325 2253 3994 
Q 2459 3747 2459 3466 
Q 2459 3003 1878 2509 
Q 2269 2356 2469 2072 
Q 2669 1788 2669 1403 
Q 2669 853 2319 450 
Q 1863 -75 997 -75 
Q 569 -75 414 31 
Q 259 138 259 259 
Q 259 350 332 419 
Q 406 488 509 488 
Q 588 488 669 463 
Q 722 447 909 348 
Q 1097 250 1169 231 
Q 1284 197 1416 197 
Q 1734 197 1970 444 
Q 2206 691 2206 1028 
Q 2206 1275 2097 1509 
Q 2016 1684 1919 1775 
Q 1784 1900 1550 2001 
Q 1316 2103 1072 2103 
L 972 2103 
L 972 2197 
Q 1219 2228 1467 2375 
Q 1716 2522 1828 2728 
Q 1941 2934 1941 3181 
Q 1941 3503 1739 3701 
Q 1538 3900 1238 3900 
Q 753 3900 428 3381 
L 325 3431 
z
" transform="scale(0.015625)"/>
      <path id="TimesNewRomanPSMT-37" d="M 644 4238 
L 2916 4238 
L 2916 4119 
L 1503 -88 
L 1153 -88 
L 2419 3728 
L 1253 3728 
Q 900 3728 750 3644 
Q 488 3500 328 3200 
L 238 3234 
L 644 4238 
z
" transform="scale(0.015625)"/>
     </defs>
     <use xlink:href="#TimesNewRomanPSMT-4d"/>
     <use xlink:href="#TimesNewRomanPSMT-41" x="88.916016"/>
     <use xlink:href="#TimesNewRomanPSMT-45" x="161.132812"/>
     <use xlink:href="#TimesNewRomanPSMT-20" x="222.216797"/>
     <use xlink:href="#TimesNewRomanPSMT-3a" x="247.216797"/>
     <use xlink:href="#TimesNewRomanPSMT-20" x="275"/>
     <use xlink:href="#TimesNewRomanPSMT-33" x="300"/>
     <use xlink:href="#TimesNewRomanPSMT-2e" x="350"/>
     <use xlink:href="#TimesNewRomanPSMT-32" x="375"/>
     <use xlink:href="#TimesNewRomanPSMT-33" x="425"/>
     <use xlink:href="#TimesNewRomanPSMT-37" x="475"/>
     <use xlink:href="#TimesNewRomanPSMT-39" x="525"/>
     <use xlink:href="#TimesNewRomanPSMT-20" x="575"/>
    </g>
   </g>
   <g id="text_20">
    <!-- MW- -GBR -->
    <g transform="translate(282.415125 28.8645) scale(0.312 -0.312)">
     <defs>
      <path id="TimesNewRomanPSMT-2d" d="M 259 1672 
L 1875 1672 
L 1875 1200 
L 259 1200 
L 259 1672 
z
" transform="scale(0.015625)"/>
      <path id="TimesNewRomanPSMT-47" d="M 3928 4334 
L 4038 2997 
L 3928 2997 
Q 3763 3497 3500 3750 
Q 3122 4116 2528 4116 
Q 1719 4116 1297 3475 
Q 944 2934 944 2188 
Q 944 1581 1178 1081 
Q 1413 581 1792 348 
Q 2172 116 2572 116 
Q 2806 116 3025 175 
Q 3244 234 3447 350 
L 3447 1575 
Q 3447 1894 3398 1992 
Q 3350 2091 3248 2142 
Q 3147 2194 2891 2194 
L 2891 2313 
L 4531 2313 
L 4531 2194 
L 4453 2194 
Q 4209 2194 4119 2031 
Q 4056 1916 4056 1575 
L 4056 278 
Q 3697 84 3347 -6 
Q 2997 -97 2569 -97 
Q 1341 -97 703 691 
Q 225 1281 225 2053 
Q 225 2613 494 3125 
Q 813 3734 1369 4063 
Q 1834 4334 2469 4334 
Q 2700 4334 2889 4296 
Q 3078 4259 3425 4131 
Q 3600 4066 3659 4066 
Q 3719 4066 3761 4120 
Q 3803 4175 3813 4334 
L 3928 4334 
z
" transform="scale(0.015625)"/>
      <path id="TimesNewRomanPSMT-42" d="M 2956 2163 
Q 3397 2069 3616 1863 
Q 3919 1575 3919 1159 
Q 3919 844 3719 555 
Q 3519 266 3170 133 
Q 2822 0 2106 0 
L 106 0 
L 106 116 
L 266 116 
Q 531 116 647 284 
Q 719 394 719 750 
L 719 3488 
Q 719 3881 628 3984 
Q 506 4122 266 4122 
L 106 4122 
L 106 4238 
L 1938 4238 
Q 2450 4238 2759 4163 
Q 3228 4050 3475 3764 
Q 3722 3478 3722 3106 
Q 3722 2788 3528 2536 
Q 3334 2284 2956 2163 
z
M 1319 2331 
Q 1434 2309 1582 2298 
Q 1731 2288 1909 2288 
Q 2366 2288 2595 2386 
Q 2825 2484 2947 2687 
Q 3069 2891 3069 3131 
Q 3069 3503 2766 3765 
Q 2463 4028 1881 4028 
Q 1569 4028 1319 3959 
L 1319 2331 
z
M 1319 306 
Q 1681 222 2034 222 
Q 2600 222 2897 476 
Q 3194 731 3194 1106 
Q 3194 1353 3059 1581 
Q 2925 1809 2622 1940 
Q 2319 2072 1872 2072 
Q 1678 2072 1540 2065 
Q 1403 2059 1319 2044 
L 1319 306 
z
" transform="scale(0.015625)"/>
     </defs>
     <use xlink:href="#TimesNewRomanPSMT-4d"/>
     <use xlink:href="#TimesNewRomanPSMT-57" x="88.916016"/>
     <use xlink:href="#TimesNewRomanPSMT-2d" x="177.800781"/>
     <use xlink:href="#TimesNewRomanPSMT-2d" x="211.101562"/>
     <use xlink:href="#TimesNewRomanPSMT-47" x="244.402344"/>
     <use xlink:href="#TimesNewRomanPSMT-42" x="316.619141"/>
     <use xlink:href="#TimesNewRomanPSMT-52" x="383.318359"/>
    </g>
   </g>
   <g id="legend_1">
    <g id="patch_7">
     <path d="M 88.02 106.27275 
L 252.469688 106.27275 
Q 256.069688 106.27275 256.069688 102.67275 
L 256.069688 48.138375 
Q 256.069688 44.538375 252.469688 44.538375 
L 88.02 44.538375 
Q 84.42 44.538375 84.42 48.138375 
L 84.42 102.67275 
Q 84.42 106.27275 88.02 106.27275 
z
" style="fill: #ffffff; opacity: 0.8; stroke: #cccccc; stroke-linejoin: miter"/>
    </g>
    <g id="PathCollection_3">
     <defs>
      <path id="m020b944003" d="M 0 6.480741 
C 1.718713 6.480741 3.367262 5.797889 4.582576 4.582576 
C 5.797889 3.367262 6.480741 1.718713 6.480741 0 
C 6.480741 -1.718713 5.797889 -3.367262 4.582576 -4.582576 
C 3.367262 -5.797889 1.718713 -6.480741 0 -6.480741 
C -1.718713 -6.480741 -3.367262 -5.797889 -4.582576 -4.582576 
C -5.797889 -3.367262 -6.480741 -1.718713 -6.480741 0 
C -6.480741 1.718713 -5.797889 3.367262 -4.582576 4.582576 
C -3.367262 5.797889 -1.718713 6.480741 0 6.480741 
z
" style="stroke: #1f77b4"/>
     </defs>
     <g>
      <use xlink:href="#m020b944003" x="118.62" y="59.613375" style="fill: #1f77b4; stroke: #1f77b4"/>
     </g>
    </g>
    <g id="text_21">
     <!-- Training Set -->
     <g transform="translate(160.02 64.338375) scale(0.18 -0.18)">
      <defs>
       <path id="TimesNewRomanPSMT-61" d="M 1822 413 
Q 1381 72 1269 19 
Q 1100 -59 909 -59 
Q 613 -59 420 144 
Q 228 347 228 678 
Q 228 888 322 1041 
Q 450 1253 767 1440 
Q 1084 1628 1822 1897 
L 1822 2009 
Q 1822 2438 1686 2597 
Q 1550 2756 1291 2756 
Q 1094 2756 978 2650 
Q 859 2544 859 2406 
L 866 2225 
Q 866 2081 792 2003 
Q 719 1925 600 1925 
Q 484 1925 411 2006 
Q 338 2088 338 2228 
Q 338 2497 613 2722 
Q 888 2947 1384 2947 
Q 1766 2947 2009 2819 
Q 2194 2722 2281 2516 
Q 2338 2381 2338 1966 
L 2338 994 
Q 2338 584 2353 492 
Q 2369 400 2405 369 
Q 2441 338 2488 338 
Q 2538 338 2575 359 
Q 2641 400 2828 588 
L 2828 413 
Q 2478 -56 2159 -56 
Q 2006 -56 1915 50 
Q 1825 156 1822 413 
z
M 1822 616 
L 1822 1706 
Q 1350 1519 1213 1441 
Q 966 1303 859 1153 
Q 753 1003 753 825 
Q 753 600 887 451 
Q 1022 303 1197 303 
Q 1434 303 1822 616 
z
" transform="scale(0.015625)"/>
       <path id="TimesNewRomanPSMT-6e" d="M 1034 2341 
Q 1538 2947 1994 2947 
Q 2228 2947 2397 2830 
Q 2566 2713 2666 2444 
Q 2734 2256 2734 1869 
L 2734 647 
Q 2734 375 2778 278 
Q 2813 200 2889 156 
Q 2966 113 3172 113 
L 3172 0 
L 1756 0 
L 1756 113 
L 1816 113 
Q 2016 113 2095 173 
Q 2175 234 2206 353 
Q 2219 400 2219 647 
L 2219 1819 
Q 2219 2209 2117 2386 
Q 2016 2563 1775 2563 
Q 1403 2563 1034 2156 
L 1034 647 
Q 1034 356 1069 288 
Q 1113 197 1189 155 
Q 1266 113 1500 113 
L 1500 0 
L 84 0 
L 84 113 
L 147 113 
Q 366 113 442 223 
Q 519 334 519 647 
L 519 1709 
Q 519 2225 495 2337 
Q 472 2450 423 2490 
Q 375 2531 294 2531 
Q 206 2531 84 2484 
L 38 2597 
L 900 2947 
L 1034 2947 
L 1034 2341 
z
" transform="scale(0.015625)"/>
       <path id="TimesNewRomanPSMT-53" d="M 2934 4334 
L 2934 2869 
L 2819 2869 
Q 2763 3291 2617 3541 
Q 2472 3791 2203 3937 
Q 1934 4084 1647 4084 
Q 1322 4084 1109 3886 
Q 897 3688 897 3434 
Q 897 3241 1031 3081 
Q 1225 2847 1953 2456 
Q 2547 2138 2764 1967 
Q 2981 1797 3098 1565 
Q 3216 1334 3216 1081 
Q 3216 600 2842 251 
Q 2469 -97 1881 -97 
Q 1697 -97 1534 -69 
Q 1438 -53 1133 45 
Q 828 144 747 144 
Q 669 144 623 97 
Q 578 50 556 -97 
L 441 -97 
L 441 1356 
L 556 1356 
Q 638 900 775 673 
Q 913 447 1195 297 
Q 1478 147 1816 147 
Q 2206 147 2432 353 
Q 2659 559 2659 841 
Q 2659 997 2573 1156 
Q 2488 1316 2306 1453 
Q 2184 1547 1640 1851 
Q 1097 2156 867 2337 
Q 638 2519 519 2737 
Q 400 2956 400 3219 
Q 400 3675 750 4004 
Q 1100 4334 1641 4334 
Q 1978 4334 2356 4169 
Q 2531 4091 2603 4091 
Q 2684 4091 2736 4139 
Q 2788 4188 2819 4334 
L 2934 4334 
z
" transform="scale(0.015625)"/>
      </defs>
      <use xlink:href="#TimesNewRomanPSMT-54"/>
      <use xlink:href="#TimesNewRomanPSMT-72" x="57.583984"/>
      <use xlink:href="#TimesNewRomanPSMT-61" x="90.884766"/>
      <use xlink:href="#TimesNewRomanPSMT-69" x="135.269531"/>
      <use xlink:href="#TimesNewRomanPSMT-6e" x="163.052734"/>
      <use xlink:href="#TimesNewRomanPSMT-69" x="213.052734"/>
      <use xlink:href="#TimesNewRomanPSMT-6e" x="240.835938"/>
      <use xlink:href="#TimesNewRomanPSMT-67" x="290.835938"/>
      <use xlink:href="#TimesNewRomanPSMT-20" x="340.835938"/>
      <use xlink:href="#TimesNewRomanPSMT-53" x="365.835938"/>
      <use xlink:href="#TimesNewRomanPSMT-65" x="421.451172"/>
      <use xlink:href="#TimesNewRomanPSMT-74" x="465.835938"/>
     </g>
    </g>
    <g id="PathCollection_4">
     <defs>
      <path id="me4f61af652" d="M 0 6.480741 
C 1.718713 6.480741 3.367262 5.797889 4.582576 4.582576 
C 5.797889 3.367262 6.480741 1.718713 6.480741 0 
C 6.480741 -1.718713 5.797889 -3.367262 4.582576 -4.582576 
C 3.367262 -5.797889 1.718713 -6.480741 0 -6.480741 
C -1.718713 -6.480741 -3.367262 -5.797889 -4.582576 -4.582576 
C -5.797889 -3.367262 -6.480741 -1.718713 -6.480741 0 
C -6.480741 1.718713 -5.797889 3.367262 -4.582576 4.582576 
C -3.367262 5.797889 -1.718713 6.480741 0 6.480741 
z
" style="stroke: #ff7f0e"/>
     </defs>
     <g>
      <use xlink:href="#me4f61af652" x="118.62" y="90.497437" style="fill: #ff7f0e; stroke: #ff7f0e"/>
     </g>
    </g>
    <g id="text_22">
     <!-- Test Set -->
     <g transform="translate(160.02 95.222437) scale(0.18 -0.18)">
      <defs>
       <path id="TimesNewRomanPSMT-73" d="M 2050 2947 
L 2050 1972 
L 1947 1972 
Q 1828 2431 1642 2597 
Q 1456 2763 1169 2763 
Q 950 2763 815 2647 
Q 681 2531 681 2391 
Q 681 2216 781 2091 
Q 878 1963 1175 1819 
L 1631 1597 
Q 2266 1288 2266 781 
Q 2266 391 1970 151 
Q 1675 -88 1309 -88 
Q 1047 -88 709 6 
Q 606 38 541 38 
Q 469 38 428 -44 
L 325 -44 
L 325 978 
L 428 978 
Q 516 541 762 319 
Q 1009 97 1316 97 
Q 1531 97 1667 223 
Q 1803 350 1803 528 
Q 1803 744 1651 891 
Q 1500 1038 1047 1263 
Q 594 1488 453 1669 
Q 313 1847 313 2119 
Q 313 2472 555 2709 
Q 797 2947 1181 2947 
Q 1350 2947 1591 2875 
Q 1750 2828 1803 2828 
Q 1853 2828 1881 2850 
Q 1909 2872 1947 2947 
L 2050 2947 
z
" transform="scale(0.015625)"/>
      </defs>
      <use xlink:href="#TimesNewRomanPSMT-54"/>
      <use xlink:href="#TimesNewRomanPSMT-65" x="54.083984"/>
      <use xlink:href="#TimesNewRomanPSMT-73" x="98.46875"/>
      <use xlink:href="#TimesNewRomanPSMT-74" x="137.384766"/>
      <use xlink:href="#TimesNewRomanPSMT-20" x="165.167969"/>
      <use xlink:href="#TimesNewRomanPSMT-53" x="190.167969"/>
      <use xlink:href="#TimesNewRomanPSMT-65" x="245.783203"/>
      <use xlink:href="#TimesNewRomanPSMT-74" x="290.167969"/>
     </g>
    </g>
   </g>
  </g>
 </g>
 <defs>
  <clipPath id="pdc868e6e7b">
   <rect x="75.42" y="35.538375" width="554.4" height="554.4"/>
  </clipPath>
 </defs>
</svg>
